<?xml version="1.0" encoding="windows-1252"?>
<!-- Generator: Adobe Illustrator 18.1.1, SVG Export Plug-In . SVG Version: 6.00 Build 0)  -->
<svg version="1.1" xmlns="http://www.w3.org/2000/svg" xmlns:xlink="http://www.w3.org/1999/xlink" x="0px" y="0px" width="257.125" height="192.258" viewBox="0 0 257.125 192.258" style="enable-background:new 0 0 257.125 192.258;" xml:space="preserve">
<g id="FloridaInternationalUniversity">
	<g>
		<g>
			<path style="fill:#949494;" d="M189.648,0v25.144l4.325-0.011l-0.01,42.886h-11.617V25.14h3.862V0H148.29v25.133h6.114v49.769     l17.047,17.893h33.432l16.916-17.893V25.133h6.239V0H189.648z M224.997,22.132h-6.181l-0.015,51.249l-15.672,16.394h-30.026     l-15.657-16.394V22.132h-6.191V2.993h31.657v19.139h-3.631v47.058l0.004-0.01l1.789,1.863h14.1h0.009l1.799-1.867V22.132h-3.631     V2.993h31.648V22.132z M104.83,25.133h6.318v42.866h-6.318v24.77h40.281v-24.77h-6.124V25.133h6.173V0H104.83V25.133z      M107.819,2.993h34.343v19.139h-6.185v48.91h6.185v18.732H107.96V71.042h6.188v-48.91h-6.329V2.993z M27.774,25.193l6.42-0.01     v42.781l-6.42,0.021v24.803h40.281V68.01h-5.948v-8.2l20.602,0.037V35.742l-20.602-0.044V25.133h11.622v5.812h27.836V0H27.774     V25.193z M30.766,2.993H98.46v24.925H77.025v-5.786H59.05v16.629h20.577v17.934H59.05v14.347h6.061v18.732H30.766V71.042h6.449     v-48.91h-6.449V2.993z"/>
			<path style="fill:#252525;" d="M192.983,22.132h3.998l0,0v47.043l0,0l-1.799,1.867h-0.009h-14.1l0,0l-1.789-1.863l-0.004,0.01     V22.132l0,0h3.631V2.993h-31.657v19.139h6.191l0,0v51.249l15.657,16.394h30.026l15.672-16.394l0.015-51.249l0,0h6.181V2.993     h-32.014V22.132z"/>
			<path style="fill:#252525;" d="M142.162,2.993h-34.343v19.139h6.329l0,0v48.91l0,0h-6.188v18.732h34.202V71.042h-6.185l0,0     v-48.91l0,0h6.185V2.993z"/>
			<path style="fill:#252525;" d="M30.766,22.132h6.449l0,0v48.91l0,0h-6.449v18.732H65.11V71.042H59.05l0,0V56.695l0,0h20.577     V38.761H59.05l0,0V22.132l0,0h17.975l0,0v5.786H98.46V2.993H30.766V22.132z"/>
		</g>
		<g>
			<path style="fill:#252525;" d="M71.66,108.336c2.082,0,3.904-0.032,4.586-0.098c0,0.717,0,3.156,0.065,4.685     c-0.13,0.26-0.716,0.326-1.041,0.13c-0.325-1.886-0.846-2.83-2.082-3.155c-0.878-0.228-1.692-0.26-2.733-0.26h-1.659     c-1.367,0-1.367,0.065-1.367,1.887v5.822c0,0.814,0.033,0.879,0.781,0.879h1.92c2.831,0,3.318-0.065,3.644-1.431l0.26-1.106     c0.195-0.227,0.813-0.227,0.976,0.033c-0.033,0.845-0.097,2.049-0.097,3.253c0,1.203,0.064,2.374,0.097,3.383     c-0.163,0.26-0.781,0.26-0.976,0.032l-0.26-1.269c-0.292-1.365-0.813-1.431-3.644-1.431h-1.92c-0.748,0-0.781,0.066-0.781,0.879     v4.554c0,3.448,0.293,3.481,1.822,3.675l1.367,0.163c0.227,0.227,0.194,0.814-0.066,0.944c-2.082-0.066-3.545-0.098-4.977-0.098     c-1.431,0-2.895,0.032-4.392,0.098c-0.26-0.13-0.292-0.717-0.064-0.944l0.715-0.097c1.53-0.196,1.822-0.293,1.822-3.742V113.02     c0-3.448-0.292-3.545-1.822-3.774l-0.422-0.065c-0.228-0.227-0.195-0.814,0.065-0.944c1.138,0.066,2.603,0.098,4.034,0.098H71.66     z"/>
			<path style="fill:#252525;" d="M84.765,124.439c0,1.625,0.066,2.797,0.554,3.35c0.39,0.455,0.911,0.716,3.513,0.716     c3.61,0,4.131-0.162,5.628-3.513c0.324-0.162,0.845-0.065,1.008,0.195c-0.26,1.366-0.976,3.839-1.366,4.718     c-1.366-0.066-4.164-0.098-7.807-0.098h-3.383c-1.66,0-3.285,0.032-4.653,0.098c-0.26-0.13-0.357-0.781-0.064-0.944l0.975-0.163     c1.53-0.26,1.822-0.292,1.822-3.675V113.02c0-3.383-0.292-3.481-1.822-3.709l-0.911-0.13c-0.227-0.163-0.227-0.814,0.066-0.944     c1.626,0.066,3.09,0.098,4.586,0.098c1.431,0,2.895-0.032,4.326-0.098c0.293,0.13,0.326,0.781,0.066,0.944l-0.717,0.13     c-1.528,0.26-1.822,0.325-1.822,3.709V124.439z"/>
			<path style="fill:#252525;" d="M119.146,119.136c0,6.408-4.88,11.191-11.451,11.191c-7.352,0-11.581-5.173-11.581-10.962     c0-6.636,4.815-11.549,11.646-11.549C115.276,107.815,119.146,113.215,119.146,119.136z M100.538,118.42     c0,4.489,1.919,10.605,7.482,10.605c3.709,0,6.701-2.765,6.701-9.304c0-4.912-2.212-10.605-7.384-10.605     C104.085,109.116,100.538,111.491,100.538,118.42z"/>
			<path style="fill:#252525;" d="M122.785,113.215c0-3.123-0.033-3.513-1.561-3.676l-0.847-0.097     c-0.227-0.227-0.227-0.748,0.033-0.911c2.049-0.195,4.815-0.293,7.482-0.293c2.537,0,4.75,0.326,6.181,1.107     c1.658,0.878,2.863,2.406,2.863,4.748c0,2.993-2.309,4.49-3.904,5.141c-0.195,0.097-0.13,0.357,0,0.553     c2.602,4.392,4.229,7.157,5.759,8.426c0.911,0.781,1.854,0.975,2.244,1.008c0.162,0.13,0.162,0.487,0.065,0.651     c-0.39,0.097-1.008,0.195-2.147,0.195c-3.123,0-4.815-1.269-6.798-4.294c-0.879-1.366-1.79-3.155-2.571-4.424     c-0.586-0.976-0.943-1.106-2.017-1.106c-0.976,0-1.008,0.033-1.008,0.716v4.164c0,3.448,0.292,3.545,1.822,3.742l0.715,0.097     c0.228,0.227,0.196,0.814-0.064,0.944c-1.431-0.066-2.896-0.098-4.327-0.098s-2.896,0.032-4.391,0.098     c-0.26-0.13-0.358-0.717-0.066-0.944l0.717-0.097c1.528-0.196,1.822-0.293,1.822-3.742V113.215z M126.559,117.9     c0,1.041,0,1.106,1.561,1.106c3.187,0,4.651-1.561,4.651-4.652c0-2.569-1.658-4.815-4.489-4.815     c-1.692,0-1.724,0.098-1.724,1.595V117.9z"/>
			<path style="fill:#252525;" d="M147.895,125.122c0,3.448,0.292,3.545,1.822,3.742l0.715,0.097     c0.228,0.227,0.196,0.814-0.064,0.944c-1.431-0.066-2.896-0.098-4.327-0.098c-1.431,0-2.96,0.032-4.391,0.098     c-0.26-0.13-0.293-0.717-0.066-0.944l0.717-0.097c1.529-0.196,1.822-0.293,1.822-3.742V113.02c0-3.448-0.293-3.545-1.822-3.742     l-0.717-0.097c-0.227-0.227-0.194-0.814,0.066-0.944c1.431,0.066,2.895,0.098,4.391,0.098c1.431,0,2.896-0.032,4.327-0.098     c0.26,0.13,0.292,0.717,0.064,0.944l-0.715,0.097c-1.53,0.196-1.822,0.293-1.822,3.742V125.122z"/>
			<path style="fill:#252525;" d="M155.634,113.215c0-3.123-0.033-3.578-1.561-3.709l-0.684-0.065     c-0.227-0.163-0.227-0.748,0.033-0.911c2.342-0.195,4.945-0.293,8.132-0.293c3.091,0,5.303,0.26,7.677,1.107     c3.904,1.431,6.669,4.879,6.669,9.726c0,3.61-1.789,7.32-5.823,9.369c-2.31,1.171-5.108,1.562-8.068,1.562     c-1.985,0-3.513-0.195-4.718-0.195c-1.236,0-2.7,0.032-4.131,0.098c-0.26-0.13-0.293-0.717-0.066-0.944l0.717-0.097     c1.528-0.196,1.822-0.293,1.822-3.742V113.215z M159.408,123.853c0,3.156,0.227,4.848,3.675,4.848     c5.791,0,8.393-4.099,8.393-9.596c0-6.442-3.741-9.565-9.174-9.565c-1.366,0-2.407,0.26-2.634,0.457     c-0.228,0.194-0.26,0.878-0.26,2.406V123.853z"/>
			<path style="fill:#252525;" d="M182.401,121.837c-0.846,0-0.813,0-1.106,0.878l-1.334,3.904c-0.651,1.919-0.52,1.985,0.684,2.179     l0.944,0.163c0.227,0.227,0.194,0.814-0.066,0.944c-1.041-0.066-2.114-0.066-3.447-0.098c-1.074,0-2.082,0.032-3.221,0.098     c-0.228-0.163-0.26-0.651-0.032-0.944l0.975-0.163c0.944-0.162,1.301-0.422,1.79-1.495c0.39-0.847,0.911-2.212,1.593-3.97     l4.457-11.581c0.39-1.041,0.716-1.822,0.617-2.374c1.139-0.228,2.212-1.561,2.278-1.561c0.26,0,0.422,0.098,0.553,0.26     c0.52,1.463,0.943,2.993,1.463,4.456l4.684,13.631c0.749,2.18,0.911,2.374,2.571,2.701l0.489,0.097     c0.26,0.227,0.26,0.781,0.032,0.944c-1.333-0.066-2.537-0.098-4.229-0.098c-1.398,0-2.83,0.065-3.969,0.098     c-0.26-0.163-0.292-0.749-0.098-0.944l0.717-0.097c1.171-0.163,1.333-0.358,0.845-1.725l-1.528-4.424     c-0.293-0.878-0.423-0.878-1.334-0.878H182.401z M186.305,120.372c0.911,0,1.041-0.065,0.781-0.846l-1.366-3.904     c-0.585-1.724-0.748-2.342-0.911-2.571h-0.065c-0.13,0.228-0.422,1.041-0.976,2.571l-1.366,3.806     c-0.325,0.944-0.26,0.944,0.521,0.944H186.305z"/>
			<path style="fill:#252525;" d="M6.463,156.02c0,3.448,0.293,3.546,1.822,3.741l0.717,0.098c0.227,0.228,0.194,0.813-0.066,0.943     c-1.431-0.064-2.895-0.097-4.326-0.097c-1.431,0-2.961,0.033-4.392,0.097c-0.26-0.13-0.292-0.715-0.064-0.943l0.715-0.098     c1.53-0.194,1.822-0.292,1.822-3.741v-12.102c0-3.448-0.292-3.547-1.822-3.741l-0.715-0.098     c-0.228-0.228-0.196-0.813,0.064-0.943c1.431,0.064,2.896,0.097,4.392,0.097c1.431,0,2.895-0.033,4.326-0.097     c0.26,0.13,0.293,0.715,0.066,0.943l-0.717,0.098c-1.529,0.194-1.822,0.292-1.822,3.741V156.02z"/>
			<path style="fill:#252525;" d="M32.095,155.174c0,0.976,0,4.977,0.097,5.726c-0.26,0.358-0.716,0.489-1.106,0.455     c-0.52-0.684-1.463-1.789-3.806-4.457l-7.613-8.685c-2.082-2.407-3.155-3.61-3.707-4.099c-0.098,0-0.098,0.358-0.098,2.082v6.344     c0,2.439,0.032,5.432,0.586,6.408c0.293,0.489,0.846,0.716,1.658,0.813l0.717,0.098c0.292,0.228,0.26,0.846-0.066,0.943     c-1.203-0.064-2.472-0.097-3.707-0.097c-1.367,0-2.245,0.033-3.383,0.097c-0.26-0.162-0.326-0.715-0.066-0.943l0.717-0.162     c0.617-0.13,1.203-0.228,1.431-0.749c0.422-1.009,0.422-3.839,0.422-6.408v-7.71c0-2.537,0.032-3.058-1.073-4.001     c-0.358-0.293-1.269-0.554-1.725-0.651l-0.487-0.098c-0.228-0.195-0.196-0.846,0.13-0.943c1.235,0.13,3.025,0.097,3.838,0.097     c0.684,0,1.464-0.033,2.245-0.097c0.554,1.398,4.099,5.497,5.238,6.733l3.253,3.513c1.365,1.496,4.391,4.945,4.716,5.14     c0.098-0.098,0.098-0.26,0.098-0.781v-6.344c0-2.439-0.033-5.432-0.619-6.408c-0.292-0.488-0.813-0.716-1.627-0.813l-0.748-0.098     c-0.293-0.228-0.26-0.846,0.064-0.943c1.269,0.064,2.472,0.097,3.742,0.097c1.399,0,2.244-0.033,3.415-0.097     c0.26,0.162,0.326,0.715,0.066,0.943l-0.749,0.162c-0.619,0.13-1.171,0.228-1.399,0.749c-0.454,1.009-0.454,3.839-0.454,6.408     V155.174z"/>
			<path style="fill:#252525;" d="M44.353,141.966c0-1.366-0.033-1.431-0.878-1.431h-1.822c-2.993,0-3.872,0.357-5.075,2.993     c-0.228,0.195-0.911,0.097-1.041-0.227c0.553-1.758,1.041-3.774,1.268-4.913c0.065-0.098,0.195-0.13,0.357-0.13     c0.13,0,0.26,0.032,0.326,0.13c0.162,0.813,0.618,0.846,2.83,0.846h13.273c1.595,0,2.082-0.097,2.472-0.846     c0.13-0.065,0.26-0.13,0.39-0.13c0.195,0,0.357,0.065,0.423,0.162c-0.326,1.334-0.587,4.132-0.489,5.173     c-0.162,0.26-0.716,0.325-1.009,0.098c-0.422-2.538-1.041-3.156-4.521-3.156h-1.855c-0.845,0-0.878,0.065-0.878,1.431v14.053     c0,3.448,0.293,3.546,1.822,3.708l1.171,0.13c0.227,0.228,0.195,0.813-0.065,0.943c-1.887-0.064-3.351-0.097-4.783-0.097     c-1.431,0-2.96,0.033-5.042,0.097c-0.26-0.13-0.293-0.781-0.065-0.943l1.366-0.162c1.528-0.196,1.822-0.228,1.822-3.676V141.966z     "/>
			<path style="fill:#252525;" d="M60.451,143.918c0-3.448-0.293-3.578-1.822-3.774l-0.52-0.065     c-0.228-0.228-0.196-0.813,0.064-0.943c1.237,0.064,2.766,0.097,4.197,0.097h6.213c2.082,0,3.97-0.033,4.392-0.097     c0.13,0.553,0.325,3.123,0.521,4.521c-0.13,0.26-0.781,0.325-1.041,0.13c-0.52-1.887-1.009-2.668-2.05-2.96     c-0.748-0.196-1.724-0.293-2.603-0.293h-2.179c-1.398,0-1.398,0.065-1.398,1.919v5.498c0,0.846,0.032,0.878,0.781,0.878h1.561     c2.83,0,3.317-0.032,3.61-1.431l0.227-1.105c0.26-0.228,0.879-0.228,1.041,0.032c-0.032,0.879-0.097,2.05-0.097,3.253     c0,1.236,0.065,2.374,0.097,3.415c-0.162,0.228-0.781,0.228-1.041,0.033l-0.227-1.301c-0.227-1.366-0.781-1.431-3.61-1.431     h-1.561c-0.749,0-0.781,0.065-0.781,0.878v4.132c0,1.66,0.064,2.831,0.553,3.383c0.39,0.455,0.943,0.683,3.675,0.716     c4.132,0.033,4.848-0.878,5.986-3.513c0.293-0.227,0.847-0.13,1.041,0.195c-0.194,1.366-0.911,3.839-1.365,4.716     c-1.431-0.064-4.23-0.097-8.036-0.097H62.37c-1.431,0-3.416,0.033-4.88,0.097c-0.26-0.13-0.292-0.715-0.065-0.943l1.204-0.13     c1.529-0.162,1.822-0.26,1.822-3.708V143.918z"/>
			<path style="fill:#252525;" d="M78.664,144.113c0-3.123-0.033-3.513-1.561-3.675l-0.847-0.098     c-0.227-0.228-0.227-0.749,0.033-0.911c2.049-0.195,4.815-0.292,7.482-0.292c2.537,0,4.749,0.324,6.181,1.105     c1.659,0.879,2.863,2.408,2.863,4.751c0,2.993-2.309,4.488-3.904,5.139c-0.195,0.098-0.13,0.358,0,0.554     c2.603,4.391,4.229,7.157,5.759,8.425c0.911,0.781,1.854,0.977,2.244,1.009c0.162,0.13,0.162,0.489,0.065,0.651     c-0.39,0.098-1.008,0.195-2.147,0.195c-3.123,0-4.815-1.268-6.798-4.294c-0.879-1.366-1.79-3.156-2.571-4.424     c-0.585-0.976-0.943-1.106-2.017-1.106c-0.976,0-1.008,0.032-1.008,0.716v4.164c0,3.448,0.292,3.546,1.822,3.741l0.715,0.098     c0.228,0.228,0.196,0.813-0.064,0.943c-1.431-0.064-2.896-0.097-4.327-0.097c-1.431,0-2.896,0.033-4.391,0.097     c-0.26-0.13-0.358-0.715-0.066-0.943l0.717-0.098c1.529-0.194,1.822-0.292,1.822-3.741V144.113z M82.438,148.798     c0,1.041,0,1.106,1.561,1.106c3.187,0,4.651-1.562,4.651-4.651c0-2.571-1.659-4.815-4.489-4.815     c-1.692,0-1.724,0.097-1.724,1.594V148.798z"/>
			<path style="fill:#252525;" d="M117.891,155.174c0,0.976,0,4.977,0.098,5.726c-0.26,0.358-0.716,0.489-1.106,0.455     c-0.52-0.684-1.464-1.789-3.807-4.457l-7.611-8.685c-2.082-2.407-3.156-3.61-3.71-4.099c-0.097,0-0.097,0.358-0.097,2.082v6.344     c0,2.439,0.033,5.432,0.586,6.408c0.292,0.489,0.846,0.716,1.66,0.813l0.715,0.098c0.293,0.228,0.26,0.846-0.064,0.943     c-1.204-0.064-2.472-0.097-3.71-0.097c-1.365,0-2.244,0.033-3.383,0.097c-0.26-0.162-0.324-0.715-0.064-0.943l0.715-0.162     c0.619-0.13,1.204-0.228,1.431-0.749c0.423-1.009,0.423-3.839,0.423-6.408v-7.71c0-2.537,0.033-3.058-1.074-4.001     c-0.357-0.293-1.268-0.554-1.724-0.651l-0.488-0.098c-0.227-0.195-0.194-0.846,0.13-0.943c1.237,0.13,3.026,0.097,3.84,0.097     c0.683,0,1.463-0.033,2.244-0.097c0.553,1.398,4.099,5.497,5.237,6.733l3.253,3.513c1.367,1.496,4.392,4.945,4.718,5.14     c0.097-0.098,0.097-0.26,0.097-0.781v-6.344c0-2.439-0.032-5.432-0.618-6.408c-0.293-0.488-0.814-0.716-1.627-0.813l-0.749-0.098     c-0.292-0.228-0.26-0.846,0.066-0.943c1.268,0.064,2.472,0.097,3.741,0.097c1.398,0,2.245-0.033,3.416-0.097     c0.26,0.162,0.324,0.715,0.064,0.943l-0.748,0.162c-0.618,0.13-1.171,0.228-1.398,0.749c-0.457,1.009-0.457,3.839-0.457,6.408     V155.174z"/>
			<path style="fill:#252525;" d="M127.581,152.734c-0.846,0-0.813,0-1.106,0.879l-1.334,3.904c-0.651,1.92-0.52,1.984,0.684,2.18     l0.944,0.162c0.227,0.228,0.194,0.813-0.066,0.943c-1.041-0.064-2.114-0.064-3.447-0.097c-1.074,0-2.082,0.033-3.221,0.097     c-0.228-0.162-0.26-0.651-0.032-0.943l0.975-0.162c0.944-0.163,1.301-0.423,1.79-1.497c0.39-0.845,0.911-2.212,1.593-3.968     l4.457-11.581c0.39-1.041,0.716-1.822,0.618-2.375c1.139-0.227,2.212-1.561,2.278-1.561c0.26,0,0.422,0.097,0.553,0.26     c0.52,1.464,0.943,2.993,1.463,4.457l4.684,13.63c0.749,2.179,0.911,2.375,2.571,2.7l0.488,0.098     c0.26,0.228,0.26,0.781,0.032,0.943c-1.333-0.064-2.537-0.097-4.229-0.097c-1.398,0-2.83,0.065-3.969,0.097     c-0.26-0.162-0.292-0.748-0.098-0.943l0.717-0.098c1.171-0.162,1.333-0.357,0.845-1.724l-1.528-4.424     c-0.293-0.879-0.423-0.879-1.334-0.879H127.581z M131.485,151.27c0.911,0,1.041-0.065,0.781-0.846l-1.366-3.904     c-0.585-1.725-0.748-2.342-0.911-2.569h-0.065c-0.13,0.227-0.422,1.041-0.976,2.569l-1.366,3.807     c-0.325,0.943-0.26,0.943,0.52,0.943H131.485z"/>
			<path style="fill:#252525;" d="M147.162,141.966c0-1.366-0.032-1.431-0.879-1.431h-1.822c-2.993,0-3.871,0.357-5.075,2.993     c-0.227,0.195-0.911,0.097-1.041-0.227c0.554-1.758,1.041-3.774,1.269-4.913c0.065-0.098,0.195-0.13,0.358-0.13     c0.13,0,0.26,0.032,0.324,0.13c0.163,0.813,0.619,0.846,2.831,0.846H156.4c1.594,0,2.082-0.097,2.472-0.846     c0.13-0.065,0.26-0.13,0.39-0.13c0.195,0,0.358,0.065,0.422,0.162c-0.324,1.334-0.584,4.132-0.487,5.173     c-0.163,0.26-0.716,0.325-1.008,0.098c-0.423-2.538-1.041-3.156-4.522-3.156h-1.854c-0.847,0-0.879,0.065-0.879,1.431v14.053     c0,3.448,0.292,3.546,1.822,3.708l1.171,0.13c0.228,0.228,0.195,0.813-0.065,0.943c-1.887-0.064-3.35-0.097-4.782-0.097     c-1.431,0-2.961,0.033-5.043,0.097c-0.26-0.13-0.292-0.781-0.065-0.943l1.366-0.162c1.53-0.196,1.822-0.228,1.822-3.676V141.966z     "/>
			<path style="fill:#252525;" d="M166.999,156.02c0,3.448,0.293,3.546,1.822,3.741l0.717,0.098     c0.227,0.228,0.194,0.813-0.066,0.943c-1.431-0.064-2.895-0.097-4.326-0.097s-2.961,0.033-4.392,0.097     c-0.26-0.13-0.292-0.715-0.064-0.943l0.715-0.098c1.53-0.194,1.822-0.292,1.822-3.741v-12.102c0-3.448-0.292-3.547-1.822-3.741     l-0.715-0.098c-0.228-0.228-0.196-0.813,0.064-0.943c1.431,0.064,2.896,0.097,4.392,0.097c1.431,0,2.895-0.033,4.326-0.097     c0.26,0.13,0.293,0.715,0.066,0.943l-0.717,0.098c-1.528,0.194-1.822,0.292-1.822,3.741V156.02z"/>
			<path style="fill:#252525;" d="M194.583,150.034c0,6.409-4.88,11.191-11.451,11.191c-7.352,0-11.581-5.172-11.581-10.963     c0-6.636,4.815-11.548,11.646-11.548C190.713,138.713,194.583,144.113,194.583,150.034z M175.975,149.318     c0,4.489,1.919,10.605,7.482,10.605c3.709,0,6.701-2.766,6.701-9.304c0-4.913-2.212-10.605-7.384-10.605     C179.522,140.014,175.975,142.39,175.975,149.318z"/>
			<path style="fill:#252525;" d="M215.756,155.174c0,0.976,0,4.977,0.097,5.726c-0.26,0.358-0.716,0.489-1.106,0.455     c-0.521-0.684-1.463-1.789-3.806-4.457l-7.613-8.685c-2.082-2.407-3.155-3.61-3.707-4.099c-0.098,0-0.098,0.358-0.098,2.082     v6.344c0,2.439,0.032,5.432,0.586,6.408c0.293,0.489,0.846,0.716,1.658,0.813l0.717,0.098c0.292,0.228,0.26,0.846-0.066,0.943     c-1.203-0.064-2.472-0.097-3.707-0.097c-1.367,0-2.245,0.033-3.383,0.097c-0.26-0.162-0.326-0.715-0.066-0.943l0.717-0.162     c0.618-0.13,1.203-0.228,1.431-0.749c0.422-1.009,0.422-3.839,0.422-6.408v-7.71c0-2.537,0.032-3.058-1.073-4.001     c-0.358-0.293-1.269-0.554-1.725-0.651l-0.487-0.098c-0.228-0.195-0.196-0.846,0.13-0.943c1.235,0.13,3.025,0.097,3.838,0.097     c0.684,0,1.464-0.033,2.245-0.097c0.554,1.398,4.099,5.497,5.238,6.733l3.253,3.513c1.365,1.496,4.391,4.945,4.716,5.14     c0.098-0.098,0.098-0.26,0.098-0.781v-6.344c0-2.439-0.033-5.432-0.619-6.408c-0.292-0.488-0.813-0.716-1.627-0.813l-0.748-0.098     c-0.293-0.228-0.26-0.846,0.064-0.943c1.269,0.064,2.472,0.097,3.742,0.097c1.399,0,2.244-0.033,3.415-0.097     c0.26,0.162,0.326,0.715,0.066,0.943l-0.749,0.162c-0.619,0.13-1.171,0.228-1.399,0.749c-0.454,1.009-0.454,3.839-0.454,6.408     V155.174z"/>
			<path style="fill:#252525;" d="M225.151,152.734c-0.846,0-0.814,0-1.106,0.879l-1.333,3.904c-0.651,1.92-0.521,1.984,0.683,2.18     l0.943,0.162c0.228,0.228,0.196,0.813-0.064,0.943c-1.041-0.064-2.115-0.064-3.449-0.097c-1.073,0-2.082,0.033-3.22,0.097     c-0.227-0.162-0.26-0.651-0.033-0.943l0.977-0.162c0.943-0.163,1.301-0.423,1.789-1.497c0.39-0.845,0.911-2.212,1.595-3.968     l4.456-11.581c0.39-1.041,0.716-1.822,0.619-2.375c1.138-0.227,2.212-1.561,2.276-1.561c0.26,0,0.423,0.097,0.554,0.26     c0.52,1.464,0.944,2.993,1.464,4.457l4.685,13.63c0.748,2.179,0.911,2.375,2.569,2.7l0.487,0.098     c0.26,0.228,0.26,0.781,0.033,0.943c-1.334-0.064-2.537-0.097-4.229-0.097c-1.399,0-2.831,0.065-3.969,0.097     c-0.26-0.162-0.293-0.748-0.097-0.943l0.715-0.098c1.171-0.162,1.334-0.357,0.847-1.724l-1.53-4.424     c-0.292-0.879-0.422-0.879-1.333-0.879H225.151z M229.055,151.27c0.911,0,1.041-0.065,0.781-0.846l-1.366-3.904     c-0.585-1.725-0.749-2.342-0.911-2.569h-0.065c-0.13,0.227-0.423,1.041-0.976,2.569l-1.366,3.807     c-0.325,0.943-0.26,0.943,0.521,0.943H229.055z"/>
			<path style="fill:#252525;" d="M246.421,155.336c0,1.628,0.066,2.799,0.554,3.351c0.39,0.455,0.911,0.716,3.513,0.716     c3.61,0,4.131-0.163,5.628-3.513c0.324-0.163,0.845-0.065,1.008,0.195c-0.26,1.366-0.976,3.839-1.366,4.716     c-1.366-0.064-4.164-0.097-7.807-0.097h-3.383c-1.66,0-3.285,0.033-4.652,0.097c-0.26-0.13-0.357-0.781-0.064-0.943l0.975-0.162     c1.53-0.26,1.822-0.293,1.822-3.676v-12.102c0-3.383-0.292-3.48-1.822-3.709l-0.911-0.13c-0.227-0.162-0.227-0.813,0.066-0.943     c1.626,0.064,3.09,0.097,4.586,0.097c1.431,0,2.895-0.033,4.326-0.097c0.293,0.13,0.326,0.781,0.066,0.943l-0.717,0.13     c-1.529,0.26-1.822,0.325-1.822,3.709V155.336z"/>
			<path style="fill:#252525;" d="M34.89,174.816c0-3.448-0.293-3.513-1.822-3.774l-0.554-0.098     c-0.227-0.227-0.195-0.781,0.065-0.911c1.301,0.066,2.765,0.098,4.196,0.098c1.464,0,2.929-0.032,4.36-0.098     c0.26,0.13,0.292,0.684,0.064,0.911l-0.715,0.098c-1.53,0.195-1.822,0.325-1.822,3.774v7.449c0,4.49,1.365,8.264,5.888,8.264     c4.262,0,6.018-3.221,6.018-8.166v-4.066c0-2.44-0.032-5.465-0.618-6.409c-0.293-0.487-0.814-0.716-1.627-0.846l-0.651-0.098     c-0.292-0.227-0.26-0.813,0.065-0.911c1.106,0.066,2.342,0.098,3.61,0.098c1.367,0,2.245-0.032,3.449-0.098     c0.26,0.163,0.324,0.684,0.064,0.911l-0.715,0.163c-0.619,0.13-1.204,0.26-1.431,0.781c-0.457,0.976-0.457,3.839-0.457,6.409     v3.871c0,2.96-0.454,5.692-2.146,7.514c-1.692,1.822-4.132,2.44-6.376,2.44c-3.059,0-5.205-0.651-6.702-2.082     c-1.463-1.399-2.146-3.675-2.146-6.962V174.816z"/>
			<path style="fill:#252525;" d="M77.173,186.072c0,0.976,0,4.978,0.098,5.726c-0.26,0.357-0.716,0.487-1.106,0.455     c-0.52-0.683-1.464-1.79-3.807-4.456l-7.611-8.686c-2.082-2.407-3.156-3.611-3.71-4.099c-0.097,0-0.097,0.357-0.097,2.082v6.343     c0,2.44,0.033,5.433,0.586,6.409c0.292,0.487,0.846,0.716,1.66,0.814l0.715,0.097c0.293,0.227,0.26,0.846-0.064,0.944     c-1.204-0.066-2.472-0.098-3.71-0.098c-1.365,0-2.244,0.032-3.383,0.098c-0.26-0.163-0.324-0.717-0.064-0.944l0.715-0.163     c0.619-0.13,1.204-0.227,1.431-0.748c0.423-1.008,0.423-3.839,0.423-6.409v-7.709c0-2.537,0.033-3.058-1.074-4.002     c-0.357-0.292-1.268-0.553-1.724-0.651l-0.488-0.097c-0.227-0.195-0.194-0.846,0.13-0.944c1.237,0.13,3.026,0.098,3.84,0.098     c0.683,0,1.463-0.032,2.244-0.098c0.553,1.399,4.099,5.498,5.237,6.735l3.253,3.513c1.367,1.496,4.392,4.945,4.718,5.14     c0.097-0.097,0.097-0.26,0.097-0.781v-6.343c0-2.44-0.032-5.433-0.618-6.409c-0.293-0.487-0.814-0.716-1.627-0.814l-0.749-0.097     c-0.292-0.227-0.26-0.846,0.066-0.944c1.268,0.066,2.472,0.098,3.741,0.098c1.398,0,2.245-0.032,3.416-0.098     c0.26,0.163,0.324,0.717,0.064,0.944l-0.748,0.163c-0.618,0.13-1.171,0.227-1.398,0.748c-0.457,1.008-0.457,3.839-0.457,6.409     V186.072z"/>
			<path style="fill:#252525;" d="M88.424,186.918c0,3.448,0.293,3.545,1.822,3.742l0.717,0.097     c0.227,0.227,0.194,0.814-0.066,0.944c-1.431-0.066-2.895-0.098-4.326-0.098s-2.961,0.032-4.392,0.098     c-0.26-0.13-0.292-0.717-0.064-0.944l0.715-0.097c1.53-0.196,1.822-0.293,1.822-3.742v-12.102c0-3.448-0.292-3.545-1.822-3.742     l-0.715-0.097c-0.228-0.227-0.196-0.814,0.064-0.944c1.431,0.066,2.896,0.098,4.392,0.098c1.431,0,2.895-0.032,4.326-0.098     c0.26,0.13,0.293,0.717,0.066,0.944l-0.717,0.097c-1.528,0.196-1.822,0.293-1.822,3.742V186.918z"/>
			<path style="fill:#252525;" d="M106.899,183.535c-1.334,2.961-2.831,6.766-3.383,8.426c-0.066,0.097-0.326,0.162-0.554,0.162     c-0.227,0-0.455-0.065-0.618-0.162c-0.39-1.301-0.911-2.896-1.497-4.262l-5.692-13.695c-0.911-2.18-1.204-2.635-2.505-2.896     l-0.781-0.163c-0.227-0.227-0.227-0.813,0.098-0.911c1.269,0.066,2.668,0.098,3.936,0.098c1.464,0,2.571-0.032,4.294-0.098     c0.293,0.196,0.326,0.717,0.033,0.944l-0.814,0.195c-0.715,0.162-0.975,0.325-0.975,0.586c0,0.293,0.26,1.008,1.593,4.327     l2.342,5.789c0.586,1.464,1.463,3.383,1.79,4.132c1.756-4.099,3.707-8.588,5.432-13.012c0.52-1.301,0.423-1.561-0.554-1.79     l-0.943-0.227c-0.228-0.26-0.195-0.781,0.065-0.944c1.334,0.066,2.439,0.098,3.48,0.098c1.171,0,2.245-0.032,3.156-0.098     c0.26,0.163,0.227,0.684,0.065,0.944l-0.813,0.163c-0.749,0.162-1.464,0.39-2.018,1.333c-0.911,1.561-1.822,3.742-3.317,7.027     L106.899,183.535z"/>
			<path style="fill:#252525;" d="M117.955,174.816c0-3.448-0.293-3.578-1.822-3.774l-0.521-0.065     c-0.228-0.227-0.196-0.814,0.064-0.944c1.237,0.066,2.766,0.098,4.197,0.098h6.213c2.082,0,3.97-0.032,4.392-0.098     c0.13,0.554,0.325,3.123,0.52,4.522c-0.13,0.26-0.781,0.325-1.041,0.13c-0.52-1.887-1.009-2.668-2.05-2.961     c-0.748-0.194-1.724-0.292-2.603-0.292h-2.179c-1.398,0-1.398,0.065-1.398,1.92v5.497c0,0.846,0.032,0.879,0.781,0.879h1.562     c2.83,0,3.317-0.033,3.61-1.431l0.227-1.107c0.26-0.227,0.879-0.227,1.041,0.033c-0.032,0.878-0.097,2.049-0.097,3.253     c0,1.236,0.065,2.375,0.097,3.416c-0.162,0.227-0.781,0.227-1.041,0.032l-0.227-1.301c-0.227-1.366-0.781-1.431-3.61-1.431     h-1.562c-0.749,0-0.781,0.065-0.781,0.879v4.131c0,1.658,0.064,2.83,0.553,3.383c0.39,0.455,0.943,0.684,3.675,0.716     c4.132,0.032,4.848-0.879,5.986-3.513c0.293-0.228,0.847-0.13,1.041,0.195c-0.194,1.366-0.911,3.839-1.365,4.718     c-1.431-0.066-4.23-0.098-8.036-0.098h-3.708c-1.431,0-3.416,0.032-4.88,0.098c-0.26-0.13-0.292-0.717-0.065-0.944l1.204-0.13     c1.528-0.163,1.822-0.26,1.822-3.709V174.816z"/>
			<path style="fill:#252525;" d="M137.47,175.011c0-3.123-0.033-3.513-1.561-3.676l-0.847-0.097     c-0.227-0.227-0.227-0.748,0.033-0.911c2.049-0.195,4.815-0.293,7.482-0.293c2.537,0,4.749,0.326,6.181,1.107     c1.658,0.878,2.863,2.406,2.863,4.748c0,2.993-2.309,4.49-3.904,5.141c-0.195,0.097-0.13,0.357,0,0.553     c2.603,4.392,4.229,7.157,5.759,8.426c0.911,0.781,1.854,0.975,2.244,1.008c0.162,0.13,0.162,0.487,0.065,0.651     c-0.39,0.097-1.008,0.195-2.147,0.195c-3.123,0-4.815-1.269-6.798-4.294c-0.879-1.366-1.79-3.155-2.571-4.424     c-0.586-0.976-0.943-1.106-2.017-1.106c-0.976,0-1.008,0.033-1.008,0.716v4.164c0,3.448,0.292,3.545,1.822,3.742l0.715,0.097     c0.228,0.227,0.196,0.814-0.064,0.944c-1.431-0.066-2.896-0.098-4.327-0.098c-1.431,0-2.896,0.032-4.391,0.098     c-0.26-0.13-0.358-0.717-0.066-0.944l0.717-0.097c1.528-0.196,1.822-0.293,1.822-3.742V175.011z M141.243,179.696     c0,1.041,0,1.106,1.561,1.106c3.187,0,4.651-1.562,4.651-4.653c0-2.569-1.658-4.815-4.489-4.815     c-1.692,0-1.724,0.098-1.724,1.595V179.696z"/>
			<path style="fill:#252525;" d="M157.114,190.756c-0.587-0.684-1.009-2.928-0.977-4.945c0.196-0.325,0.749-0.357,1.009-0.13     c0.586,1.659,2.342,5.14,5.53,5.14c2.472,0,3.871-1.496,3.871-3.481c0-1.854-0.878-3.35-3.317-4.717l-1.399-0.781     c-2.44-1.366-4.586-3.351-4.586-6.278c0-3.221,2.406-5.954,7.157-5.954c1.692,0,2.927,0.39,4.456,0.683     c0.358,0.717,0.683,2.863,0.683,4.392c-0.162,0.292-0.748,0.325-1.041,0.098c-0.487-1.692-1.625-3.872-4.391-3.872     c-2.602,0-3.676,1.692-3.676,3.415c0,1.367,0.944,2.831,3.091,3.97l2.017,1.073c2.115,1.106,4.457,3.123,4.457,6.408     c0,3.71-2.831,6.344-7.547,6.344C159.456,192.123,157.765,191.147,157.114,190.756z"/>
			<path style="fill:#252525;" d="M178.97,186.918c0,3.448,0.293,3.545,1.822,3.742l0.717,0.097     c0.227,0.227,0.194,0.814-0.066,0.944c-1.431-0.066-2.895-0.098-4.326-0.098c-1.431,0-2.961,0.032-4.392,0.098     c-0.26-0.13-0.292-0.717-0.064-0.944l0.715-0.097c1.53-0.196,1.822-0.293,1.822-3.742v-12.102c0-3.448-0.292-3.545-1.822-3.742     l-0.715-0.097c-0.228-0.227-0.196-0.814,0.064-0.944c1.431,0.066,2.896,0.098,4.392,0.098c1.431,0,2.895-0.032,4.326-0.098     c0.26,0.13,0.293,0.717,0.066,0.944l-0.717,0.097c-1.528,0.196-1.822,0.293-1.822,3.742V186.918z"/>
			<path style="fill:#252525;" d="M192.143,172.864c0-1.366-0.032-1.431-0.879-1.431h-1.822c-2.993,0-3.871,0.358-5.075,2.993     c-0.227,0.195-0.911,0.098-1.041-0.228c0.554-1.756,1.041-3.774,1.269-4.912c0.065-0.097,0.195-0.13,0.358-0.13     c0.13,0,0.26,0.033,0.324,0.13c0.163,0.814,0.619,0.846,2.831,0.846h13.273c1.594,0,2.082-0.098,2.472-0.846     c0.13-0.065,0.26-0.13,0.39-0.13c0.195,0,0.358,0.065,0.422,0.163c-0.324,1.333-0.584,4.131-0.487,5.172     c-0.163,0.26-0.716,0.325-1.008,0.097c-0.423-2.536-1.041-3.155-4.522-3.155h-1.854c-0.847,0-0.879,0.065-0.879,1.431v14.053     c0,3.448,0.292,3.545,1.822,3.709l1.171,0.13c0.228,0.227,0.195,0.814-0.065,0.944c-1.887-0.066-3.35-0.098-4.782-0.098     s-2.961,0.032-5.043,0.098c-0.26-0.13-0.292-0.781-0.065-0.944l1.366-0.163c1.53-0.194,1.822-0.227,1.822-3.675V172.864z"/>
			<path style="fill:#252525;" d="M213.251,184.998c0-1.822-0.163-2.309-1.041-4.034l-3.904-7.709     c-0.717-1.399-0.977-1.757-2.44-2.082l-0.846-0.195c-0.195-0.227-0.13-0.846,0.13-0.944c1.398,0.066,2.766,0.098,4.099,0.098     c1.431,0,3.415-0.032,4.164-0.098c0.26,0.13,0.325,0.717,0.065,0.944l-0.976,0.163c-0.521,0.097-0.683,0.162-0.683,0.422     s0.097,0.619,0.584,1.692c1.269,2.798,2.472,5.433,3.774,7.807c1.334-2.472,2.538-4.749,3.807-7.189     c0.554-1.107,0.878-1.822,0.878-2.18c0-0.325-0.292-0.422-0.748-0.489l-0.976-0.227c-0.228-0.227-0.228-0.781,0.098-0.944     c1.431,0.066,2.439,0.098,3.415,0.098c1.009,0,2.05-0.032,3.091-0.098c0.292,0.163,0.292,0.684,0.064,0.944l-0.943,0.195     c-1.463,0.292-1.854,0.879-3.545,3.742c-1.107,1.854-2.082,3.644-3.091,5.465c-0.976,1.692-1.203,2.374-1.203,4.586v1.952     c0,3.448,0.292,3.545,1.886,3.709l1.237,0.13c0.227,0.227,0.194,0.814-0.066,0.944c-2.016-0.066-3.48-0.098-4.912-0.098     c-1.496,0-2.96,0.032-4.718,0.098c-0.26-0.13-0.292-0.717-0.064-0.944l1.041-0.13c1.528-0.195,1.822-0.26,1.822-3.709V184.998z"/>
		</g>
	</g>
</g>
<g id="Layer_1">
</g>
</svg>